<?xml version="1.0" encoding="iso-8859-1"?>
<!-- Generator: Adobe Illustrator 20.1.0, SVG Export Plug-In . SVG Version: 6.00 Build 0)  -->
<svg xmlns="http://www.w3.org/2000/svg" xmlns:xlink="http://www.w3.org/1999/xlink" version="1.1" id="&#1057;&#1083;&#1086;&#1081;_1" x="0px" y="0px" viewBox="0 0 64 64" style="enable-background:new 0 0 64 64;" xml:space="preserve">
<linearGradient id="SVGID_1__48190" gradientUnits="userSpaceOnUse" x1="32" y1="5.75" x2="32" y2="18.1477" spreadMethod="reflect">
	<stop offset="0" style="stop-color:#6DC7FF"/>
	<stop offset="1" style="stop-color:#E6ABFF"/>
</linearGradient>
<path style="fill-rule:evenodd;clip-rule:evenodd;fill:url(#SVGID_1__48190);" d="M48.86,13.54l-4.73,5.17C40.93,15.79,36.67,14,32,14  s-8.93,1.79-12.13,4.71l-4.73-5.17C19.58,9.48,25.51,7,32,7S44.42,9.48,48.86,13.54z"/>
<linearGradient id="SVGID_2__48190" gradientUnits="userSpaceOnUse" x1="32" y1="4.75" x2="32" y2="59.0006" spreadMethod="reflect">
	<stop offset="0" style="stop-color:#1A6DFF"/>
	<stop offset="1" style="stop-color:#C822FF"/>
</linearGradient>
<path style="fill:url(#SVGID_2__48190);" d="M50.255,13.496l0.018-0.02l-0.738-0.675C44.737,8.416,38.51,6,32,6  s-12.737,2.416-17.535,6.802l-0.738,0.675l0.018,0.02C8.814,18.367,6,25.051,6,32c0,14.337,11.664,26,26,26s26-11.663,26-26  C58,25.051,55.186,18.367,50.255,13.496z M32,8c5.674,0,11.116,1.988,15.433,5.618l-3.384,3.699  c-0.108-0.088-0.223-0.164-0.333-0.25c-0.2-0.157-0.402-0.308-0.607-0.457c-0.257-0.186-0.517-0.364-0.782-0.536  c-0.211-0.138-0.424-0.272-0.64-0.401c-0.272-0.162-0.548-0.314-0.827-0.461c-0.22-0.116-0.44-0.232-0.664-0.34  c-0.288-0.138-0.58-0.263-0.874-0.386c-0.226-0.094-0.45-0.191-0.679-0.277c-0.305-0.114-0.615-0.213-0.925-0.311  c-0.226-0.072-0.45-0.148-0.679-0.211c-0.328-0.09-0.661-0.162-0.995-0.235c-0.218-0.047-0.433-0.103-0.653-0.143  c-0.372-0.067-0.749-0.112-1.126-0.158c-0.186-0.022-0.37-0.056-0.557-0.073C33.143,13.028,32.573,13,32,13  s-1.143,0.028-1.709,0.079c-0.188,0.017-0.372,0.05-0.558,0.073c-0.376,0.045-0.752,0.09-1.124,0.157  c-0.221,0.04-0.437,0.096-0.656,0.144c-0.332,0.073-0.664,0.144-0.991,0.234c-0.23,0.063-0.455,0.14-0.682,0.212  c-0.309,0.098-0.618,0.196-0.922,0.31c-0.23,0.086-0.455,0.183-0.682,0.278c-0.292,0.123-0.583,0.247-0.869,0.385  c-0.226,0.108-0.447,0.225-0.669,0.342c-0.277,0.147-0.551,0.297-0.821,0.458c-0.218,0.13-0.432,0.265-0.646,0.404  c-0.263,0.171-0.521,0.348-0.776,0.532c-0.207,0.149-0.411,0.302-0.612,0.46c-0.109,0.085-0.224,0.161-0.331,0.249l-3.384-3.699  C20.884,9.988,26.326,8,32,8z M31,35.558l-10.16,9.236c-1.105-0.965-2.094-2.059-2.92-3.277l9.903-8.913L31,25.617V35.558z   M32,37.352l9.562,8.693C38.836,47.907,35.544,49,32,49s-6.836-1.093-9.562-2.955L32,37.352z M43.16,44.793L33,35.558v-9.941  l3.176,6.987l9.903,8.913C45.253,42.734,44.264,43.828,43.16,44.793z M47.11,39.754l-9.286-8.358L32,18.583l-5.824,12.813  l-9.286,8.358C15.69,37.426,15,34.794,15,32c0-4.766,2.021-9.341,5.544-12.552C23.688,16.58,27.756,15,32,15  c1.061,0,2.111,0.099,3.138,0.292c3.082,0.579,5.96,2.006,8.318,4.157C46.979,22.659,49,27.234,49,32  C49,34.794,48.31,37.426,47.11,39.754z M32,56C18.767,56,8,45.233,8,32c0-6.389,2.577-12.537,7.095-17.028l3.397,3.713  C15.003,22.222,13,27.009,13,32c0,10.477,8.523,19,19,19s19-8.523,19-19c0-4.991-2.003-9.778-5.492-13.315l3.397-3.713  C53.423,19.463,56,25.611,56,32C56,45.233,45.233,56,32,56z"/>
</svg>
